HIERARCHY
ROOT Hips
{
	OFFSET 0.000003 96.368652 -0.035689
	CHANNELS 6 Xposition Yposition Zposition Xrotation Yrotation Zrotation
	JOINT Spine
	{
		OFFSET 0.000010 9.226303 1.577100
		CHANNELS 6 Xposition Yposition Zposition Xrotation Yrotation Zrotation
		JOINT Spine1
		{
			OFFSET 0.000000 16.253998 -0.165600
			CHANNELS 6 Xposition Yposition Zposition Xrotation Yrotation Zrotation
			JOINT Spine2
			{
				OFFSET -0.000000 13.639587 -1.292299
				CHANNELS 6 Xposition Yposition Zposition Xrotation Yrotation Zrotation
				JOINT Neck
				{
					OFFSET 0.000000 13.877411 -4.354199
					CHANNELS 6 Xposition Yposition Zposition Xrotation Yrotation Zrotation
					JOINT Neck1
					{
						OFFSET 0.000000 4.339996 0.926899
						CHANNELS 6 Xposition Yposition Zposition Xrotation Yrotation Zrotation
						JOINT Head
						{
							OFFSET 0.000000 4.026611 0.858500
							CHANNELS 6 Xposition Yposition Zposition Xrotation Yrotation Zrotation
							JOINT HeadTop_End
							{
								OFFSET 0.000000 21.748810 0.000000
								CHANNELS 6 Xposition Yposition Zposition Xrotation Yrotation Zrotation
								End Site
								{
									OFFSET 0.000000 11.825378 0.000000
								}
							}
							JOINT L_Eye
							{
								OFFSET 3.005700 7.261795 7.955601
								CHANNELS 6 Xposition Yposition Zposition Xrotation Yrotation Zrotation
								End Site
								{
									OFFSET 0.000000 11.825378 0.000000
								}
							}
							JOINT R_Eye
							{
								OFFSET -3.005700 7.261795 7.955601
								CHANNELS 6 Xposition Yposition Zposition Xrotation Yrotation Zrotation
								End Site
								{
									OFFSET 0.000000 11.825378 0.000000
								}
							}
							JOINT Jaw
							{
								OFFSET 0.000000 2.030289 2.456200
								CHANNELS 6 Xposition Yposition Zposition Xrotation Yrotation Zrotation
								End Site
								{
									OFFSET 0.000000 11.825378 0.000000
								}
							}
						}
					}
				}
				JOINT L_Shoulder
				{
					OFFSET 6.144200 10.187012 -3.793198
					CHANNELS 6 Xposition Yposition Zposition Xrotation Yrotation Zrotation
					JOINT L_Arm
					{
						OFFSET 12.319103 -1.112991 -1.793500
						CHANNELS 3 Xrotation Yrotation Zrotation
						JOINT L_ForeArm
						{
							OFFSET 27.687006 -0.000015 -0.000000
							CHANNELS 3 Xrotation Yrotation Zrotation
							JOINT L_Hand
							{
								OFFSET 27.873787 0.000031 -0.000000
								CHANNELS 3 Xrotation Yrotation Zrotation
								JOINT L_HandThumb1
								{
									OFFSET 2.421021 -1.395554 2.392360
									CHANNELS 6 Xposition Yposition Zposition Xrotation Yrotation Zrotation
									JOINT L_HandThumb2
									{
										OFFSET 3.496521 -2.018692 2.018717
										CHANNELS 6 Xposition Yposition Zposition Xrotation Yrotation Zrotation
										JOINT L_HandThumb3
										{
											OFFSET 4.011398 -2.315994 2.315975
											CHANNELS 6 Xposition Yposition Zposition Xrotation Yrotation Zrotation
											JOINT L_HandThumb4
											{
												OFFSET 2.095787 -1.210007 1.209984
												CHANNELS 6 Xposition Yposition Zposition Xrotation Yrotation Zrotation
												End Site
												{
													OFFSET 1.877617 -1.197205 1.536803
												}
											}
										}
									}
								}
								JOINT L_HandIndex1
								{
									OFFSET 10.514771 -0.231369 2.264849
									CHANNELS 6 Xposition Yposition Zposition Xrotation Yrotation Zrotation
									JOINT L_HandIndex2
									{
										OFFSET 5.549301 0.000000 0.000000
										CHANNELS 3 Xrotation Yrotation Zrotation
										JOINT L_HandIndex3
										{
											OFFSET 3.391098 0.000000 0.000001
											CHANNELS 3 Xrotation Yrotation Zrotation
											JOINT L_HandIndex4
											{
												OFFSET 2.334351 0.000000 0.000011
												CHANNELS 6 Xposition Yposition Zposition Xrotation Yrotation Zrotation
												End Site
												{
													OFFSET 2.334351 0.000000 0.000101
												}
											}
										}
									}
								}
								JOINT L_HandMiddle1
								{
									OFFSET 10.490761 -0.000015 0.000002
									CHANNELS 6 Xposition Yposition Zposition Xrotation Yrotation Zrotation
									JOINT L_HandMiddle2
									{
										OFFSET 5.792099 0.000000 0.000000
										CHANNELS 3 Xrotation Yrotation Zrotation
										JOINT L_HandMiddle3
										{
											OFFSET 3.713196 0.000000 0.000000
											CHANNELS 3 Xrotation Yrotation Zrotation
											JOINT L_HandMiddle4
											{
												OFFSET 2.752045 -0.000031 0.000022
												CHANNELS 6 Xposition Yposition Zposition Xrotation Yrotation Zrotation
												End Site
												{
													OFFSET 2.752045 0.000031 -0.003599
												}
											}
										}
									}
								}
								JOINT L_HandRing1
								{
									OFFSET 10.240753 -0.046051 -2.314147
									CHANNELS 6 Xposition Yposition Zposition Xrotation Yrotation Zrotation
									JOINT L_HandRing2
									{
										OFFSET 5.445206 -0.000015 0.000676
										CHANNELS 3 Xrotation Yrotation Zrotation
										JOINT L_HandRing3
										{
											OFFSET 3.713196 0.000015 -0.000674
											CHANNELS 3 Xrotation Yrotation Zrotation
											JOINT L_HandRing4
											{
												OFFSET 2.280716 0.000000 -0.000046
												CHANNELS 3 Xrotation Yrotation Zrotation
												End Site
												{
													OFFSET 2.280716 -0.000061 0.003501
												}
											}
										}
									}
								}
								JOINT L_HandPinky1
								{
									OFFSET 9.820259 -0.209747 -4.418469
									CHANNELS 6 Xposition Yposition Zposition Xrotation Yrotation Zrotation
									JOINT L_HandPinky2
									{
										OFFSET 3.676300 0.000000 0.000000
										CHANNELS 3 Xrotation Yrotation Zrotation
										JOINT L_HandPinky3
										{
											OFFSET 2.811295 0.000000 0.000001
											CHANNELS 3 Xrotation Yrotation Zrotation
											JOINT L_HandPinky4
											{
												OFFSET 1.659546 0.000000 0.000000
												CHANNELS 3 Xrotation Yrotation Zrotation
												End Site
												{
													OFFSET 1.659546 0.000015 -0.001891
												}
											}
										}
									}
								}
							}
						}
					}
				}
				JOINT R_Shoulder
				{
					OFFSET -6.140200 10.187012 -3.793198
					CHANNELS 6 Xposition Yposition Zposition Xrotation Yrotation Zrotation
					JOINT R_Arm
					{
						OFFSET -12.323095 -1.113007 -1.793499
						CHANNELS 3 Xrotation Yrotation Zrotation
						JOINT R_ForeArm
						{
							OFFSET -27.687002 0.000015 -0.000002
							CHANNELS 3 Xrotation Yrotation Zrotation
							JOINT R_Hand
							{
								OFFSET -27.873795 -0.000015 0.000000
								CHANNELS 3 Xrotation Yrotation Zrotation
								JOINT R_HandPinky1
								{
									OFFSET -9.791023 -0.212921 -4.378341
									CHANNELS 6 Xposition Yposition Zposition Xrotation Yrotation Zrotation
									JOINT R_HandPinky2
									{
										OFFSET -3.652802 0.000000 0.000000
										CHANNELS 3 Xrotation Yrotation Zrotation
										JOINT R_HandPinky3
										{
											OFFSET -2.781998 0.000000 0.000000
											CHANNELS 3 Xrotation Yrotation Zrotation
											JOINT R_HandPinky4
											{
												OFFSET -1.612122 0.000198 0.000004
												CHANNELS 3 Xrotation Yrotation Zrotation
												End Site
												{
													OFFSET -1.612106 0.000320 -0.007100
												}
											}
										}
									}
								}
								JOINT R_HandRing1
								{
									OFFSET -10.391914 0.105164 -2.349891
									CHANNELS 6 Xposition Yposition Zposition Xrotation Yrotation Zrotation
									JOINT R_HandRing2
									{
										OFFSET -5.401306 0.000000 0.000000
										CHANNELS 3 Xrotation Yrotation Zrotation
										JOINT R_HandRing3
										{
											OFFSET -3.391602 0.000000 0.000000
											CHANNELS 3 Xrotation Yrotation Zrotation
											JOINT R_HandRing4
											{
												OFFSET -2.353172 0.000305 -0.000032
												CHANNELS 3 Xrotation Yrotation Zrotation
												End Site
												{
													OFFSET -2.353180 0.000275 0.001400
												}
											}
										}
									}
								}
								JOINT R_HandMiddle1
								{
									OFFSET -10.779236 0.000000 0.000001
									CHANNELS 6 Xposition Yposition Zposition Xrotation Yrotation Zrotation
									JOINT R_HandMiddle2
									{
										OFFSET -5.616806 0.000000 0.000000
										CHANNELS 3 Xrotation Yrotation Zrotation
										JOINT R_HandMiddle3
										{
											OFFSET -3.736397 0.000000 0.000000
											CHANNELS 3 Xrotation Yrotation Zrotation
											JOINT R_HandMiddle4
											{
												OFFSET -2.691521 0.000336 -0.000028
												CHANNELS 3 Xrotation Yrotation Zrotation
												End Site
												{
													OFFSET -2.691513 0.000214 0.009200
												}
											}
										}
									}
								}
								JOINT R_HandIndex1
								{
									OFFSET -10.577324 -0.175369 2.287349
									CHANNELS 6 Xposition Yposition Zposition Xrotation Yrotation Zrotation
									JOINT R_HandIndex2
									{
										OFFSET -5.376801 0.000000 0.000001
										CHANNELS 3 Xrotation Yrotation Zrotation
										JOINT R_HandIndex3
										{
											OFFSET -3.385498 0.000000 0.000001
											CHANNELS 3 Xrotation Yrotation Zrotation
											JOINT R_HandIndex4
											{
												OFFSET -2.363556 0.000305 0.000042
												CHANNELS 3 Xrotation Yrotation Zrotation
												End Site
												{
													OFFSET -2.363548 0.000381 -0.006501
												}
											}
										}
									}
								}
								JOINT R_HandThumb1
								{
									OFFSET -2.570442 -1.245102 2.319054
									CHANNELS 6 Xposition Yposition Zposition Xrotation Yrotation Zrotation
									JOINT R_HandThumb2
									{
										OFFSET -3.518791 -2.031555 2.031563
										CHANNELS 6 Xposition Yposition Zposition Xrotation Yrotation Zrotation
										JOINT R_HandThumb3
										{
											OFFSET -3.945267 -2.277756 2.277756
											CHANNELS 6 Xposition Yposition Zposition Xrotation Yrotation Zrotation
											JOINT R_HandThumb4
											{
												OFFSET -2.055496 -1.186386 1.186664
												CHANNELS 3 Xrotation Yrotation Zrotation
												End Site
												{
													OFFSET -1.840202 -1.174805 1.508071
												}
											}
										}
									}
								}
							}
						}
					}
				}
			}
		}
	}
	JOINT L_UpLeg
	{
		OFFSET 9.633796 -3.273308 -0.000000
		CHANNELS 6 Xposition Yposition Zposition Xrotation Yrotation Zrotation
		JOINT L_Leg
		{
			OFFSET -0.006490 -41.762173 -0.553830
			CHANNELS 3 Xrotation Yrotation Zrotation
			JOINT L_Foot
			{
				OFFSET 0.006493 -39.146984 -2.021915
				CHANNELS 3 Xrotation Yrotation Zrotation
				JOINT L_ToeBase
				{
					OFFSET -0.183300 -12.185708 8.282301
					CHANNELS 6 Xposition Yposition Zposition Xrotation Yrotation Zrotation
					JOINT L_Toe_End
					{
						OFFSET -0.094684 -0.116787 6.663326
						CHANNELS 3 Xrotation Yrotation Zrotation
						End Site
						{
							OFFSET -0.094684 -0.116787 6.663328
						}
					}
				}
			}
		}
	}
	JOINT R_UpLeg
	{
		OFFSET -9.633803 -3.273293 0.000000
		CHANNELS 6 Xposition Yposition Zposition Xrotation Yrotation Zrotation
		JOINT R_Leg
		{
			OFFSET -0.006491 -41.762146 -0.555884
			CHANNELS 3 Xrotation Yrotation Zrotation
			JOINT R_Foot
			{
				OFFSET 0.006493 -39.147087 -2.019920
				CHANNELS 3 Xrotation Yrotation Zrotation
				JOINT R_ToeBase
				{
					OFFSET -0.183299 -12.185700 8.282300
					CHANNELS 6 Xposition Yposition Zposition Xrotation Yrotation Zrotation
					JOINT R_Toe_End
					{
						OFFSET 0.094687 -0.116863 6.675869
						CHANNELS 3 Xrotation Yrotation Zrotation
						End Site
						{
							OFFSET 0.094687 -0.116863 6.675869
						}
					}
				}
			}
		}
	}
}
MOTION
Frames: 4
Frame Time: 0.033333
5.064424 78.329117 -8.548302 25.390854 -46.824837 33.223263 0.000010 9.226297 1.577097 12.403491 2.730041 8.107288 0.000005 16.253994 -0.165595 0.507898 0.604136 0.991966 -0.000001 13.639583 -1.292287 0.516330 0.637573 0.973082 -0.000001 13.877380 -4.354190 9.435622 1.000603 1.715040 0.000007 4.339996 0.926906 -0.000001 0.000000 -0.000002 0.000007 4.026627 0.858501 23.651654 11.032051 -18.044979 -0.000000 21.748810 -0.000000 -0.000001 -0.000000 -0.000001 3.005702 7.261795 7.955605 -0.000000 -0.000000 -0.000001 -3.005697 7.261796 7.955597 -0.000000 -0.000000 -0.000001 0.000005 2.030289 2.456199 -0.000000 -0.000000 -0.000001 6.144197 10.186996 -3.793190 0.088001 -0.598939 16.537138 -31.222096 -20.624233 -55.135753 0.001103 -87.032449 0.001066 -43.747679 0.628289 1.387184 2.421025 -1.395538 2.392367 18.600985 5.613096 -13.680352 3.496509 -2.018679 2.018721 12.077339 9.726586 9.523358 4.011408 -2.315970 2.315965 3.387234 2.053772 7.492355 2.095785 -1.210011 1.209987 0.000002 0.000000 0.000004 10.514788 -0.231356 2.264855 0.367746 2.224296 -18.773478 0.520606 2.631068 -22.380686 0.131305 1.341031 -11.184352 2.334324 -0.000004 0.000016 0.000002 -0.000003 0.000002 10.490774 -0.000013 0.000011 0.367125 2.222469 -18.757479 0.521330 2.632858 -22.396689 0.131313 1.341015 -11.184349 2.752059 -0.000051 0.000017 0.000002 -0.000001 0.000000 10.240759 -0.046048 -2.314145 0.370038 2.231019 -18.773373 0.516639 2.614339 -22.380839 0.131066 1.350254 -11.184070 0.000002 0.000002 -0.000001 9.820268 -0.209731 -4.418468 1.661702 6.067769 -18.356635 0.525570 -1.427748 -22.853810 0.131306 1.341020 -11.184351 0.000001 0.000000 -0.000002 -6.140203 10.186993 -3.793190 -0.796804 -3.817619 3.797268 -26.589691 58.202672 41.800013 -0.000051 47.529036 0.000010 -59.591638 35.807506 -8.301721 -9.791021 -0.212911 -4.378335 3.871380 -6.233300 63.656318 8.493858 -6.775873 102.876057 2.600025 -5.425009 51.193439 0.000000 -0.000002 -0.000000 -10.391922 0.105184 -2.349883 3.871383 -6.233299 63.656318 8.493857 -6.775874 102.876057 2.599283 -5.424480 51.193374 -0.000000 -0.000001 0.000001 -10.779223 0.000008 0.000007 3.871385 -6.233298 63.656318 8.493858 -6.775873 102.876057 2.599434 -5.424590 51.193286 -0.000000 -0.000000 0.000002 -10.577317 -0.175342 2.287353 3.871388 -6.233284 63.656325 8.493858 -6.775850 102.876063 2.600678 -5.425592 51.193504 -0.000000 -0.000002 -0.000000 -2.570408 -1.245102 2.319053 39.964721 -9.056077 27.148853 -3.518805 -2.031541 2.031565 -6.839520 -22.258965 -45.814228 -3.945271 -2.277744 2.277767 -3.430042 -6.994784 -23.641679 -0.000002 0.000005 0.000002 9.633794 -3.273306 -0.000002 -63.167440 18.050604 16.265821 48.452358 8.660568 4.933376 3.967511 7.785707 -16.320392 -0.183300 -12.185708 8.282305 -0.002692 -0.000000 -0.000002 0.000000 -0.000001 -0.000000 -9.633809 -3.273301 0.000004 -62.477120 10.929950 -30.094039 63.674787 -5.414219 -10.231258 -12.328619 -5.680565 26.480355 -0.183304 -12.185699 8.282298 -0.114703 -0.000045 0.000008 0.000000 0.000000 -0.000000 
5.690379 78.484390 -7.075203 23.736016 -46.506806 31.015042 0.000011 9.226309 1.577101 12.265026 2.758430 7.358828 0.000000 16.253994 -0.165597 0.438019 0.649341 0.804676 0.000008 13.639594 -1.292309 0.445524 0.675671 0.784057 -0.000003 13.877416 -4.354198 9.179005 1.251062 1.316972 0.000001 4.339996 0.926900 0.000000 0.000003 -0.000001 0.000007 4.026624 0.858490 23.489070 11.539007 -17.937603 0.000002 21.748795 0.000004 -0.000001 0.000000 -0.000001 3.005698 7.261780 7.955609 -0.000001 0.000000 -0.000001 -3.005704 7.261780 7.955612 -0.000001 0.000000 -0.000001 -0.000000 2.030289 2.456203 -0.000001 0.000000 -0.000001 6.144197 10.187001 -3.793198 -0.054495 -0.036928 15.873068 -32.807916 -24.736217 -55.740528 0.000846 -85.927973 0.000793 -44.026665 0.546544 2.083724 2.421029 -1.395547 2.392372 18.600980 5.613088 -13.680357 3.496501 -2.018672 2.018729 12.077341 9.726582 9.523360 4.011406 -2.315998 2.315966 3.387238 2.053767 7.492350 2.095786 -1.210010 1.209981 -0.000001 0.000003 0.000004 10.514780 -0.231373 2.264853 0.367745 2.224294 -18.773480 0.520607 2.631066 -22.380682 0.131306 1.341034 -11.184348 2.334347 0.000015 -0.000003 -0.000004 0.000002 -0.000002 10.490759 -0.000019 0.000003 0.367122 2.222467 -18.757479 0.521329 2.632858 -22.396687 0.131312 1.341018 -11.184346 2.752044 -0.000039 0.000025 -0.000001 -0.000005 0.000000 10.240751 -0.046051 -2.314147 0.370033 2.231017 -18.773374 0.516638 2.614338 -22.380843 0.131070 1.350256 -11.184069 -0.000001 0.000006 -0.000002 9.820261 -0.209750 -4.418459 1.661702 6.067765 -18.356632 0.525573 -1.427748 -22.853810 0.131312 1.341026 -11.184352 -0.000002 0.000002 -0.000001 -6.140203 10.187001 -3.793201 -0.639962 -3.380308 3.270326 -25.976873 59.247752 43.987122 -0.000064 47.850622 0.000048 -60.368463 34.061487 -9.378127 -9.791018 -0.212918 -4.378343 3.871380 -6.233301 63.656318 8.493856 -6.775875 102.876063 2.600025 -5.425010 51.193436 0.000000 -0.000002 -0.000000 -10.391903 0.105183 -2.349898 3.871382 -6.233300 63.656318 8.493857 -6.775873 102.876063 2.599282 -5.424478 51.193378 0.000001 -0.000001 -0.000001 -10.779235 0.000008 -0.000005 3.871382 -6.233300 63.656318 8.493857 -6.775874 102.876063 2.599435 -5.424588 51.193296 0.000000 -0.000002 0.000000 -10.577321 -0.175357 2.287345 3.871386 -6.233284 63.656325 8.493858 -6.775850 102.876063 2.600676 -5.425593 51.193504 0.000000 0.000003 0.000001 -2.570431 -1.245111 2.319037 39.964728 -9.056077 27.148854 -3.518812 -2.031529 2.031555 -6.839520 -22.258963 -45.814228 -3.945259 -2.277744 2.277757 -3.430040 -6.994784 -23.641680 0.000001 0.000004 0.000000 9.633796 -3.273299 0.000002 -63.171894 18.297713 15.797200 50.314602 8.859356 5.157589 2.043706 6.952409 -15.163974 -0.183298 -12.185709 8.282300 -0.002694 0.000001 -0.000007 0.000000 0.000001 0.000000 -9.633804 -3.273286 0.000004 -59.765781 10.141452 -31.304352 61.684948 -5.905837 -10.262229 -11.273490 -5.788069 28.029502 -0.183302 -12.185700 8.282301 -0.095430 0.000012 0.000011 0.000000 0.000000 -0.000000 
6.269091 78.721436 -5.595556 22.228936 -46.328367 28.747856 0.000010 9.226313 1.577102 12.058584 2.969114 6.485450 -0.000002 16.253981 -0.165602 0.364581 0.713438 0.630320 -0.000003 13.639610 -1.292293 0.371705 0.734298 0.606780 -0.000002 13.877398 -4.354206 8.867670 1.546601 0.952083 0.000002 4.339996 0.926901 -0.000005 -0.000003 0.000001 0.000000 4.026595 0.858500 23.026198 12.319822 -17.524392 -0.000006 21.748810 0.000006 -0.000000 0.000000 0.000000 3.005699 7.261795 7.955601 -0.000000 0.000000 0.000000 -3.005703 7.261795 7.955599 -0.000000 0.000000 0.000000 -0.000010 2.030289 2.456205 -0.000000 0.000000 0.000000 6.144199 10.186988 -3.793207 -0.220895 0.628986 15.197789 -34.362675 -28.665047 -56.287483 0.000462 -83.670473 0.000425 -45.146495 0.690377 2.650725 2.421021 -1.395553 2.392359 18.600980 5.613091 -13.680357 3.496522 -2.018689 2.018719 12.077338 9.726592 9.523358 4.011414 -2.316001 2.315976 3.387232 2.053769 7.492349 2.095774 -1.210009 1.209981 -0.000002 0.000003 0.000006 10.514772 -0.231373 2.264837 0.367745 2.224291 -18.773480 0.520610 2.631068 -22.380681 0.131306 1.341039 -11.184356 2.334361 0.000014 0.000006 0.000002 -0.000001 0.000002 10.490759 -0.000028 -0.000010 0.367122 2.222466 -18.757479 0.521332 2.632858 -22.396692 0.131313 1.341016 -11.184349 2.752050 -0.000051 0.000026 0.000000 0.000001 0.000001 10.240748 -0.046049 -2.314155 0.370033 2.231015 -18.773374 0.516635 2.614335 -22.380838 0.131068 1.350261 -11.184070 0.000002 0.000002 0.000001 9.820269 -0.209762 -4.418475 1.661700 6.067767 -18.356634 0.525569 -1.427750 -22.853804 0.131311 1.341031 -11.184351 -0.000002 -0.000003 -0.000000 -6.140204 10.187014 -3.793203 -0.467199 -2.908934 2.680551 -26.302365 60.186575 46.733753 -0.000050 47.923445 0.000026 -61.203262 31.810240 -10.415219 -9.791018 -0.212918 -4.378335 3.871381 -6.233298 63.656318 8.493855 -6.775877 102.876057 2.600027 -5.425009 51.193439 0.000000 0.000001 -0.000000 -10.391889 0.105169 -2.349883 3.871385 -6.233297 63.656318 8.493856 -6.775873 102.876063 2.599282 -5.424477 51.193378 0.000000 0.000001 0.000000 -10.779220 0.000008 0.000010 3.871386 -6.233297 63.656318 8.493856 -6.775873 102.876063 2.599431 -5.424588 51.193292 -0.000000 -0.000001 -0.000001 -10.577302 -0.175357 2.287360 3.871390 -6.233283 63.656325 8.493858 -6.775848 102.876057 2.600675 -5.425592 51.193504 0.000000 0.000000 0.000001 -2.570423 -1.245109 2.319049 39.964728 -9.056076 27.148856 -3.518820 -2.031541 2.031560 -6.839521 -22.258967 -45.814225 -3.945271 -2.277763 2.277743 -3.430036 -6.994783 -23.641674 -0.000003 0.000005 0.000002 9.633795 -3.273297 0.000006 -63.007710 18.459645 15.536630 51.914178 9.123389 5.401973 0.212809 6.109880 -14.100871 -0.183301 -12.185710 8.282299 -0.002684 -0.000002 -0.000002 -0.000000 -0.000000 0.000000 -9.633806 -3.273287 0.000005 -57.377223 8.774269 -32.026521 59.789871 -6.488769 -10.277713 -10.006840 -6.369271 29.120959 -0.183300 -12.185699 8.282296 -0.078977 0.000014 0.000000 -0.000000 0.000000 -0.000000 
6.725571 79.012589 -4.213636 20.810434 -46.218568 26.429543 0.000009 9.226321 1.577101 11.815823 3.387966 5.486917 0.000001 16.253994 -0.165599 0.307421 0.800432 0.525651 0.000004 13.639603 -1.292294 0.313883 0.817817 0.498380 -0.000001 13.877395 -4.354204 8.584615 1.872415 0.627195 0.000000 4.340012 0.926914 0.000001 0.000003 -0.000001 0.000001 4.026609 0.858501 22.070025 13.443434 -16.719690 0.000004 21.748810 0.000003 0.000001 0.000000 -0.000003 3.005707 7.261810 7.955596 0.000001 0.000000 -0.000003 -3.005697 7.261795 7.955595 0.000001 0.000000 -0.000003 0.000003 2.030304 2.456201 0.000001 0.000000 -0.000003 6.144202 10.186983 -3.793205 -0.385690 1.296750 14.667479 -35.969846 -32.082891 -56.801667 0.000347 -80.527357 0.000280 -47.327549 0.774550 3.126695 2.421018 -1.395531 2.392349 18.600985 5.613090 -13.680355 3.496505 -2.018677 2.018747 12.077341 9.726587 9.523355 4.011399 -2.315982 2.315977 3.387230 2.053770 7.492349 2.095777 -1.210013 1.209981 0.000000 0.000000 0.000004 10.514784 -0.231373 2.264829 0.367747 2.224292 -18.773478 0.520608 2.631067 -22.380682 0.131306 1.341039 -11.184350 2.334346 0.000012 0.000013 -0.000001 0.000001 -0.000001 10.490767 -0.000018 -0.000008 0.367124 2.222464 -18.757479 0.521331 2.632856 -22.396687 0.131316 1.341018 -11.184345 2.752057 -0.000035 0.000010 0.000002 -0.000001 -0.000002 10.240752 -0.046046 -2.314162 0.370034 2.231014 -18.773374 0.516636 2.614338 -22.380836 0.131067 1.350254 -11.184068 0.000000 -0.000001 -0.000001 9.820269 -0.209748 -4.418488 1.661703 6.067766 -18.356634 0.525571 -1.427744 -22.853804 0.131311 1.341029 -11.184347 0.000000 -0.000001 0.000002 -6.140197 10.186993 -3.793204 -0.339996 -2.594248 2.317845 -27.551168 61.188311 49.867211 -0.000029 47.562313 -0.000001 -62.118897 29.192809 -11.172220 -9.791010 -0.212911 -4.378333 3.871376 -6.233300 63.656318 8.493858 -6.775873 102.876063 2.600026 -5.425007 51.193439 -0.000001 -0.000000 0.000000 -10.391914 0.105175 -2.349884 3.871379 -6.233298 63.656318 8.493858 -6.775870 102.876063 2.599281 -5.424477 51.193374 -0.000001 0.000000 -0.000000 -10.779231 0.000015 0.000005 3.871379 -6.233298 63.656318 8.493858 -6.775870 102.876063 2.599433 -5.424589 51.193292 0.000001 0.000001 -0.000000 -10.577310 -0.175365 2.287359 3.871383 -6.233283 63.656325 8.493857 -6.775851 102.876057 2.600679 -5.425594 51.193501 0.000001 -0.000000 0.000000 -2.570416 -1.245114 2.319043 39.964721 -9.056072 27.148853 -3.518805 -2.031529 2.031549 -6.839520 -22.258965 -45.814225 -3.945271 -2.277736 2.277755 -3.430037 -6.994780 -23.641677 -0.000005 0.000002 0.000001 9.633792 -3.273300 -0.000001 -62.617016 18.309478 15.425926 53.231923 9.259539 5.516061 -1.418144 5.547078 -13.192484 -0.183298 -12.185704 8.282305 -0.033678 -0.000001 -0.000003 0.000000 0.000001 0.000000 -9.633806 -3.273282 0.000001 -55.414383 6.906239 -32.116332 58.673463 -7.074040 -10.248359 -9.431193 -7.124177 29.570447 -0.183300 -12.185699 8.282300 -0.113582 0.000008 -0.000009 -0.000000 0.000000 0.000000 
